<svg width="12" height="12" viewBox="0 0 12 12" fill="none" xmlns="http://www.w3.org/2000/svg">
<path d="M11.5745 0.434321C11.4092 0.268631 11.1848 0.175516 10.9507 0.175516C10.7167 0.175516 10.4922 0.268631 10.3269 0.434321L6.00002 4.75236L1.67313 0.425472C1.50782 0.259783 1.28338 0.166668 1.04932 0.166668C0.815262 0.166668 0.590821 0.259783 0.425504 0.425472C0.0804147 0.770562 0.0804147 1.32801 0.425504 1.6731L4.75239 6L0.425504 10.3269C0.0804147 10.672 0.0804147 11.2294 0.425504 11.5745C0.770593 11.9196 1.32804 11.9196 1.67313 11.5745L6.00002 7.24763L10.3269 11.5745C10.672 11.9196 11.2294 11.9196 11.5745 11.5745C11.9196 11.2294 11.9196 10.672 11.5745 10.3269L7.24765 6L11.5745 1.6731C11.9108 1.33686 11.9108 0.770562 11.5745 0.434321Z" fill="#9799AD"/>
</svg>
